<?xml version="1.0" encoding="utf-8"?>
<svg xmlns="http://www.w3.org/2000/svg" width="400" height="400" viewBox="0 0 400 400">
        <g fill-rule="evenodd" transform="translate(-1)">
            <polygon points="184.226 394.155 181.102 382.092 176.422 398.059 173.285 397.835 179.563 376.568 182.67 376.791 186.216 389.626 191.548 377.425 194.656 377.646 197.848 399.589 194.711 399.365 192.35 382.866 187.511 394.389"></polygon>
            <g transform="translate(.79 .414)">
                <path d="M167.891761 383.722094L160.89292 382.408235C160.754189 383.952075 161.993119 385.392053 163.742458 385.719961 165.784096 386.10351 167.169175 385.156137 167.891761 383.722094L167.891761 383.722094zM168.519386 381.183401C168.902193 379.141763 167.772319 377.118672 165.294459 376.653517 163.544378 376.324125 162.184523 376.974748 161.527964 378.059368L159.29789 376.43318C160.847665 374.610396 163.162313 373.536162 165.932471 374.056216 169.577299 374.740965 172.092252 378.231483 171.298447 382.459424 170.503899 386.687365 167.040831 389.056911 163.249854 388.344712 159.750434 387.688895 157.354922 384.370492 158.148727 380.142551L158.604238 379.321296 168.519386 381.183401zM140.489897 379.726582C143.168804 380.601994 145.251987 379.097473 146.035406 376.700478 146.818825 374.30274 146.02502 371.859007 143.346112 370.983595 140.949117 370.200176 138.611471 371.621607 137.828794 374.019344 137.045375 376.41634 138.092901 378.943163 140.489897 379.726582L140.489897 379.726582zM137.455631 366.562767L139.993583 367.391441 139.906784 368.611824 140.001743 368.799518 140.189438 368.704558C141.311893 368.134799 142.906181 368.030194 144.316484 368.490898 147.982826 369.689025 150.163936 373.523772 148.82782 377.612241 147.491705 381.701451 143.467779 383.509399 139.801437 382.311272 138.391135 381.850568 137.165558 380.824556 136.595799 379.703584L136.500839 379.51589 136.313887 379.61085 135.663263 380.646506 133.125312 379.817833 137.455631 366.562767zM128.790541 378.21672L126.322326 377.196643 126.615366 375.711411 126.534502 375.517782 126.340873 375.598646C125.065591 376.355358 123.741346 376.450318 122.644856 375.997033 122.096611 375.770019 121.822117 375.657254 121.387379 375.156489L122.407456 372.688274 124.052191 373.368572C125.670218 374.036259 127.558288 373.275838 128.270487 371.708258L131.375973 364.196782 134.118681 365.329624 128.790541 378.21672zM118.916493 368.283322L112.543794 365.105133C111.98813 366.552529 112.786387 368.275903 114.37919 369.071192 116.237585 369.997793 117.829647 369.465127 118.916493 368.283322L118.916493 368.283322zM120.214773 366.012445C121.141373 364.15405 120.607966 361.898753 118.351185 360.772588 116.758381 359.978782 115.272407 360.231761 114.344322 361.096045L112.643947 358.921612C114.632911 357.592173 117.1538 357.192303 119.67543 358.44978 122.995317 360.105643 124.458293 364.151083 122.538322 368.000668 120.618352 371.850995 116.638939 373.181917 113.186999 371.460027 110.001391 369.871674 108.604442 366.024315 110.52367 362.17473L111.186906 361.510753 120.214773 366.012445zM93.6481847 356.953049C95.987314 358.525822 98.4021143 357.647443 99.8094496 355.554616 101.216785 353.461789 101.120341 350.894162 98.781212 349.321389 96.6891269 347.91257 94.0525061 348.643316 92.644429 350.735401 91.2370937 352.827486 91.5553577 355.545713 93.6481847 356.953049L93.6481847 356.953049zM94.3210646 343.460583L96.5363008 344.949525 96.1201094 346.100172 96.1601706 346.306413 96.3664116 346.266351C97.6016321 346.025242 99.1640191 346.359828 100.394788 347.187759 103.595233 349.339936 104.647211 353.624259 102.246506 357.193416 99.8458015 360.764056 95.4813558 361.404294 92.2809107 359.252117 91.0501414 358.423443 90.1509899 357.102907 89.9083971 355.867687L89.8683359 355.662188 89.661353 355.702249 88.753299 356.521278 86.5380628 355.031595 94.3210646 343.460583zM73.4274401 341.337488C75.5343627 343.209236 78.0456067 342.660991 79.7200167 340.775147 81.3944267 338.890045 81.6429545 336.332063 79.53529 334.460314 77.6494459 332.785904 74.9393796 333.156841 73.2642278 335.041944 71.5898178 336.927788 71.541596 339.662336 73.4274401 341.337488L73.4274401 341.337488zM75.8986229 328.055715L77.8942644 329.828052 77.3282144 330.913414 77.3408263 331.121881 77.5507766 331.110753C78.8067696 331.035823 80.3105485 331.577391 81.4189085 332.5626 84.3033153 335.12355 84.7729216 339.50951 81.9159642 342.725534 79.0597487 345.942301 74.6485649 345.994232 71.7649001 343.43254 70.6780544 342.467362 69.9413734 341.018482 69.8664441 339.762489L69.8538322 339.552539 69.6446237 339.564409 63.1428386 346.885223 60.923893 344.914805 75.8986229 328.055715zM65.383076 330.01953L60.4993184 324.837539C59.4784996 326.003023 59.6320675 327.897028 60.8531924 329.19234 62.2768489 330.70428 63.9549682 330.753985 65.383076 330.01953L65.383076 330.01953zM67.3846525 328.336959C68.896592 326.913303 69.1747948 324.612009 67.4454862 322.776612 66.2243613 321.480558 64.7420967 321.206065 63.5736449 321.696444L62.7279084 319.067983C65.0536839 318.507869 67.5575092 319.001215 69.4908332 321.053239 72.0339778 323.752919 72.0109797 328.055047 68.8802708 331.004739 65.74882 333.955914 61.5542635 333.832021 58.9087402 331.024027 56.4672323 328.432661 56.4842955 324.340483 59.6157463 321.389308L60.4666759 320.995373 67.3846525 328.336959zM60.9198869 317.9344L58.4331247 316.512227C59.492521 315.463217 59.6000927 313.850383 58.6660732 312.696768 57.7327955 311.543896 56.6429823 311.471192 55.9515556 312.032049 55.2823851 312.572133 55.3098345 313.314008 55.8959151 314.366727 56.143701 314.815561 56.3684889 315.2822 56.5747299 315.725099 57.6066769 317.944044 57.5265545 320.108833 55.7972458 321.508008 53.7214819 323.188353 50.9817406 322.161599 49.4883479 320.3173 47.9014791 318.356526 47.7701674 315.599722 49.5439885 313.78213L51.4105439 316.089359C50.7183753 316.648732 50.7710484 317.751157 51.5181156 318.674048 52.264441 319.596198 53.3312561 319.877368 54.0234247 319.317253 54.7155933 318.757138 54.6599527 317.88692 54.1488014 316.926193L53.4462466 315.585626C52.382399 313.469059 52.3326935 311.333945 54.1777345 309.841295 56.0227755 308.34716 58.9220198 308.862763 60.6958409 311.054259 62.4689201 313.245013 62.5067557 315.886085 60.9198869 317.9344M44.3892985 313.365048L42.6792785 311.013307 53.9572495 302.811889 55.6680113 305.16363 44.3892985 313.365048zM39.6071776 316.878564L37.8622896 314.479343 40.5018779 312.559373 42.2467659 314.959336 39.6071776 316.878564zM52.2057588 293.515538C51.1649094 291.892317 49.4956925 291.376714 48.1217415 292.258061 46.7477906 293.138666 46.4695878 294.902842 47.5104372 296.526805 48.5512867 298.150026 50.2716929 298.632986 51.6449019 297.752381 53.0188529 296.871034 53.2466082 295.138758 52.2057588 293.515538M45.1379237 298.047647C44.0970742 296.423684 42.1273983 296.100969 40.5041777 297.14256 38.8802151 298.18341 38.3520007 300.108573 39.3928502 301.731052 40.4344415 303.355756 42.4041174 303.678472 44.0280799 302.63688 45.6505587 301.596773 46.1787731 299.670868 45.1379237 298.047647M48.1031947 300.199824C48.1692215 302.060444 47.3472249 303.856522 45.548922 305.010136 42.6763852 306.852209 38.987045 306.04505 37.1449715 303.173255 36.4246117 302.048574 36.1241526 300.47951 36.552214 299.499495L36.5974684 299.294737 36.3927111 299.250225 35.2331618 299.641193 34.111448 297.892595 38.9825938 294.769305C40.7808967 293.616433 42.7565076 293.618658 44.4197895 294.455492 44.2543516 292.657931 44.9524551 290.941976 46.6253814 289.868484 49.422247 288.075374 52.6723976 289.516094 54.3542264 292.138619 56.0353132 294.761144 55.9885751 298.316205 53.1917096 300.109315 51.5187833 301.182065 49.6522279 301.074493 48.1031947 300.199824M31.9694348 294.187898L30.7208606 291.826513 31.6311402 291.010451 31.6934576 290.808661 31.4924097 290.747828C30.429304 290.639514 29.2096629 289.605341 28.654741 288.556331 26.9907173 285.410043 28.118366 282.462577 31.0027728 280.937284L38.6084666 276.9141 39.9957713 279.537367 32.3900774 283.559809C30.7527612 284.526471 30.2386424 285.838846 31.1541151 287.570381 31.9731442 289.11793 33.9116613 289.736653 35.4606946 288.984393L42.9091111 285.045041 44.2964158 287.667566 31.9694348 294.187898zM21.3057356 265.486642C22.2857514 268.129939 24.7599017 268.825817 27.1242546 267.94818 29.4886076 267.071285 30.9092966 264.929494 29.9292808 262.28768 29.0516437 259.922585 26.4847591 258.976696 24.1204062 259.853591 21.7560532 260.731228 20.4280985 263.122289 21.3057356 265.486642L21.3057356 265.486642zM29.7289748 254.924579L30.6570594 257.427663 29.6473687 258.118347 29.5598275 258.309751 29.751231 258.397292C30.895201 258.921797 31.967951 260.10657 32.4835536 261.497584 33.8256039 265.112737 32.1786433 269.206399 28.1458154 270.702017 24.1122456 272.199119 20.19515 270.170835 18.8530996 266.55494 18.3374971 265.163926 18.3783002 263.566671 18.9028052 262.423443L18.9896045 262.23204 18.7989428 262.144499 17.5830111 262.27952 16.6541846 259.775694 29.7289748 254.924579zM15.1859415 255.182232L14.4900635 252.603478 15.5576204 252.008494 15.6629666 251.826735 15.4797237 251.722131C14.4670654 251.380869 13.5055965 250.104103 13.196235 248.957908 12.2674085 245.521547 14.0189734 242.896796 17.169713 242.045124L25.4757361 239.801697 26.2495108 242.665331 17.9434877 244.909501C16.1325729 245.49113 15.3409932 246.658098 15.8514026 248.548393 16.3083971 250.237641 18.0629295 251.27033 19.7395651 250.87862L27.8749571 248.680447 28.64799 251.544823 15.1859415 255.182232zM12.286178 232.323976C12.7706218 235.10007 15.0771085 236.234395 17.5616451 235.800399 20.0454398 235.367144 21.8318728 233.519136 21.3474289 230.742301 20.9134326 228.258506 18.5616915 226.861557 16.0771549 227.294812 13.5933602 227.728808 11.8529234 229.838698 12.286178 232.323976L12.286178 232.323976zM22.4869477 223.466741L22.9461678 226.095943 21.8281634 226.592257 21.7072379 226.764371 21.8793527 226.885297C22.9083322 227.609366 23.7488756 228.96848 24.0040803 230.42923 24.6665739 234.229109 22.3037047 237.954801 18.0668614 238.69445 13.8285343 239.434098 10.3439514 236.728483 9.68071591 232.927862 9.43070432 231.496787 9.75638707 229.903983 10.4797144 228.874262L10.6013817 228.702147 10.4292669 228.581221.784160987 230.264534.273751565 227.34155 22.4869477 223.466741zM7.49151945 215.129707L7.33646775 212.433737 4.37490611 212.60511 1.27758149 210.435128 1.2456809 209.872045 7.16954607 209.531525 6.99743126 206.539547 9.66372699 206.38672 9.8358418 209.377957 16.9452219 208.969184C17.8332452 208.918737 18.3896509 208.262178 18.3392034 207.374155L17.940817 205.613688 20.6063708 205.46012 20.9965967 207.072954C21.1672277 210.034516 19.7776974 211.719312 17.1121436 211.872138L10.0027635 212.280911 10.1578152 214.976881 7.49151945 215.129707zM12.0565679 200.443641L12.1396578 193.322391C10.5950758 193.452961 9.39175592 194.922613 9.37098345 196.703111 9.3465016 198.779617 10.5186628 199.979969 12.0565679 200.443641L12.0565679 200.443641zM14.6664812 200.621691C16.742987 200.646172 18.5405481 199.183938 18.5694812 196.661566 18.5909955 194.88181 17.7148421 193.65475 16.5330366 193.196272L17.7489683 190.718412C19.8121204 191.929151 21.270645 194.02272 21.2380025 196.841842 21.1942319 200.550471 18.1918672 203.630732 13.889739 203.581027 9.58835258 203.529837 6.65572402 200.528214 6.70023647 196.671953 6.74178143 193.111698 9.59577132 190.177586 13.8964158 190.227292L14.7836973 190.535169 14.6664812 200.621691zM19.4256781 181.230287C19.5918579 179.45795 18.5383966 177.988297 17.4011035 177.404442L19.0940604 175.238911C21.05335 176.584671 22.3338248 178.82068 22.0704595 181.62719 21.7217786 185.349172 18.4515973 188.43982 14.168016 188.038466 9.88517643 187.63637 7.24633004 183.991543 7.59575277 180.26956 7.85837622 177.46305 9.5298187 175.534177 11.7064775 174.575676L12.9676636 177.018667C11.7413456 177.380702 10.4341633 178.598859 10.2679835 180.371197 10.00536 183.177707 11.9290397 184.907757 14.4395419 185.142931 16.9507859 185.378847 19.1630547 184.036797 19.4256781 181.230287M.50499374 169.367942L1.02949877 166.447183 10.6657022 168.17575 10.8385589 168.056308 10.7183753 167.884193C9.94830992 167.142319 9.62411091 165.577707 9.83331942 164.409255 10.4624287 160.905383 13.1658181 159.279937 16.3781333 159.856373L24.8481105 161.375731 24.3236055 164.29649 15.8543701 162.777132C13.9700097 162.529346 12.7563036 163.245996 12.4105903 165.173385 12.1012287 166.896017 13.2466824 168.578588 14.929253 168.940622L23.224148 170.428822 22.7003848 173.34958.50499374 169.367942zM12.1166597 154.547447L12.8147633 151.969435 14.0381138 151.993917 14.219873 151.889312 14.1152687 151.707553C13.411972 150.901878 13.2257616 149.315009 13.5366069 148.169555 14.466917 144.733194 17.3016182 143.348857 20.4523578 144.202754L28.7568971 146.452117 27.9808967 149.315751 19.6763574 147.066388C17.8201883 146.65539 16.5486159 147.264469 16.0359809 149.15328 15.5789864 150.844012 16.5738397 152.618575 18.2193165 153.126758L26.3517411 155.330125 25.5764826 158.193759 12.1166597 154.547447zM29.7467056 136.54869C30.7244958 133.905392 29.2911949 131.792535 26.9253582 130.918607 24.5602634 130.043937 22.0972412 130.715334 21.119451 133.358631 20.1424027 136.002671 21.5757036 138.114045 23.9415403 138.988714 26.3066351 139.863384 28.7696573 139.191988 29.7467056 136.54869M18.6148839 132.432772C19.9532248 128.814652 23.920026 126.643186 27.9543376 128.135837 31.9893912 129.627004 33.5903556 133.857171 32.2520147 137.475291 30.9144155 141.092669 26.9476144 143.263393 22.911819 141.772226 18.8782492 140.279575 17.2772847 136.050151 18.6148839 132.432772"></path>
                <polygon points="34.291 124.305 36.852 125.12 35.645 127.831 33.084 127.015 14.923 118.934 16.13 116.223"></polygon>
                <path d="M39.1392776 115.438587C40.4486855 112.94218 39.2980387 110.663143 37.0642556 109.492465 34.8304725 108.321046 32.3021653 108.670469 30.9934993 111.166875 29.6840914 113.663282 30.8347383 115.941577 33.0685214 117.112997 35.3015626 118.283674 37.8298697 117.934993 39.1392776 115.438587M28.6284045 109.926462C30.4200306 106.510873 34.6323921 104.86688 38.4419159 106.864747 42.2521816 108.862614 43.2959985 113.26267 41.5043724 116.678258 39.7134882 120.094589 35.5011267 121.738582 31.690861 119.740715 27.8805954 117.742848 26.8375203 113.342792 28.6284045 109.926462M51.8634581 105.405926C52.9028238 103.781221 52.6728428 102.048945 51.29815 101.169824 49.9234571 100.289962 48.2037928 100.775147 47.165169 102.399852 46.1258033 104.024556 46.4062317 105.788733 47.7809246 106.668596 49.1548755 107.547716 50.8240924 107.03063 51.8634581 105.405926M44.7911717 100.881235C45.8305374 99.2565308 45.3000974 97.3321092 43.675393 96.2927435 42.0506886 95.2533778 40.0810127 95.5783187 39.0423888 97.2030231 38.0022813 98.8277275 38.5327213 100.752149 40.1581676 101.790773 41.7821301 102.830881 43.7510641 102.50594 44.7911717 100.881235M44.076005 104.474132C42.413465 105.31245 40.438596 105.316901 38.6388093 104.165512 35.7640469 102.327148 34.9539203 98.6378078 36.7930264 95.7637873 37.5119024 94.639106 38.811666 93.7095377 39.8814485 93.6895071L40.0862058 93.6442528 40.0409515 93.4394955 39.2018918 92.5499884 40.320638 90.8006491 45.1947512 93.9187462C46.994538 95.0701349 47.8180183 96.8647285 47.7534752 98.7260908 49.3173459 97.8247137 51.168322 97.74014 52.8419901 98.8114063 55.6410813 100.602291 55.6915287 104.15661 54.0126675 106.78136 52.3338063 109.405369 49.0851393 110.849056 46.2860481 109.058914 44.61238 107.986906 43.9291139 106.247211 44.076005 104.474132"></path>
                <polygon points="47.347 81.225 49.13 78.854 60.557 96.734 58.772 99.105 54.309 92.107 41.818 88.575 43.619 86.18 52.16 88.746"></polygon>
                <path d="M62.6445217 78.4753002L63.7150461 75.8171651C64.8975935 76.7244772 66.5111698 76.6109705 67.5260537 75.5293179 68.5416794 74.4476654 68.4652664 73.3585941 67.8161265 72.7487736 67.1892428 72.1604674 66.4584968 72.2880697 65.4948022 73.0121389 65.0845458 73.3185329 64.6527751 73.6048964 64.2410349 73.8697454 62.1845597 75.1939908 60.0294153 75.4091343 58.4061946 73.8860667 56.4595169 72.0588306 57.1034636 69.2040989 58.7289099 67.4733064 60.4552511 65.6349423 63.167543 65.129726 65.2091807 66.6394399L63.179413 68.8020031C62.5302731 68.1929244 61.4449112 68.395456 60.6318171 69.2612232 59.8194649 70.1262484 59.6874113 71.2219966 60.3365512 71.8310753 60.9856911 72.4408958 61.8403301 72.2665554 62.7216766 71.6292855L63.9546715 70.7509065C65.9058005 69.4088561 68.0142069 69.0698196 69.7449993 70.6937822 71.4757917 72.3192285 71.3593175 75.2615014 69.4297028 77.3164928 67.5015718 79.3714842 64.8886911 79.7683869 62.6445217 78.4753002M63.9232902 62.439171L65.887773 60.5881949 63.8542959 58.4285992 63.5263875 54.6613623 63.9366439 54.2748458 68.0050818 58.5947791 70.1869337 56.5397876 72.0178792 58.4842398 69.8367691 60.5384894 74.7183011 65.722706C75.3281217 66.3703621 76.1886957 66.3755552 76.8363518 65.7649928L77.9291325 64.3287244 79.759336 66.2724347 78.7756109 67.6070664C76.6152733 69.6412853 74.4319377 69.6598322 72.6009923 67.7161219L67.7194603 62.5319052 65.7542356 64.3836231 63.9232902 62.439171zM91.189317 57.2489451L89.12023 58.9367089 88.1409561 58.2044791 87.9317476 58.1829647 87.9102332 58.3921732C88.0133537 59.4567626 87.239579 60.8544536 86.319655 61.6052302 83.560625 63.8553345 80.4499467 63.3286039 78.3875365 60.7995549L72.9481152 54.1323318 75.2479251 52.2568739 80.6866045 58.924097C81.9322112 60.3581398 83.3209997 60.604442 84.8618723 59.348449 86.1950202 58.2608615 86.4398386 56.2600269 85.4212454 54.8712385L80.0760421 48.318264 82.3751101 46.443548 91.189317 57.2489451zM92.8476283 41.9724208C90.5122085 43.5496453 90.4209579 46.1180136 91.8320026 48.2078731 93.2430472 50.2977326 95.6600733 51.1724023 97.9954931 49.5951778 100.086094 48.1833913 100.399165 45.4659062 98.9873789 43.3760467 97.5755923 41.2861872 94.9382297 40.5606343 92.8476283 41.9724208L92.8476283 41.9724208zM105.102648 47.6596281L102.889637 49.1545046 101.979357 48.3369592 101.773116 48.2961562 101.733055 48.5031391C101.49343 49.7383595 100.596504 51.0611212 99.3679603 51.8912783 96.1712246 54.0501321 91.806037 53.4173135 89.3979135 49.8518663 86.98979 46.2864191 88.0343488 42.0013539 91.2303427 39.8417582 92.4351463 39.0286642 94.0212732 38.6740483 95.2572356 38.9129318L95.4627347 38.952993 95.5035378 38.746752 90.0240553 30.6328743 92.4826262 28.9725599 105.102648 47.6596281zM101.108249 33.7085362L103.619493 32.2425929 110.648009 44.286178 108.137506 45.7513794 101.108249 33.7085362zM98.0903046 28.598507L100.65348 27.1028887 102.298215 29.9212686 99.7357815 31.4168869 98.0903046 28.598507zM118.447777 37.5979598C120.967923 36.3360319 121.365568 33.8144016 120.236435 31.5598461 119.107303 29.3045486 116.851264 28.1108731 114.329633 29.372801 111.810229 30.634729 111.413326 33.1563593 112.542458 35.4116567 113.671591 37.6662123 115.92763 38.8598878 118.447777 37.5979598M113.134474 26.9847081C116.584189 25.2583669 120.963472 26.3845319 122.888635 30.2311494 124.814541 34.077767 123.092651 38.2597116 119.642936 39.9860528 116.194705 41.7123939 111.81468 40.586229 109.888775 36.7403533 107.962869 32.8929939 109.685501 28.7110493 113.134474 26.9847081M132.632856 29.4735475L134.796903 27.5958641C135.436398 28.9416238 136.923856 29.5751843 138.320805 29.0744193 139.717754 28.5736542 140.145073 27.5698985 139.845356 26.7315807 139.555284 25.9221959 138.846052 25.7026012 137.658311 25.9073585 137.153837 25.9948996 136.638976 26.0527658 136.151565 26.1009876 133.717476 26.3428386 131.70032 25.5527426 130.949543 23.4584319 130.04965 20.9442203 131.922882 18.6970835 134.157407 17.8958594 136.531404 17.0449298 139.176928 17.8313164 140.307544 20.1051607L137.513646 21.1059489C137.213929 20.2676311 136.156016 19.9538183 135.038012 20.3536885 133.920749 20.7543006 133.302768 21.6682895 133.603969 22.5066073 133.904428 23.3449251 134.744971 23.5800992 135.819947 23.4154032L137.316307 23.1943247C139.665081 22.8879306 141.697816 23.5467149 142.498298 25.780498 143.299522 28.0157648 141.855093 30.5819075 139.20141 31.5322483 136.548468 32.4840729 134.041675 31.6479807 132.632856 29.4735475M146.204998 19.6669356L153.072527 17.7825752C152.520573 16.333695 150.775685 15.5814346 149.05973 16.0525247 147.055928 16.6022534 146.225771 18.0615199 146.204998 19.6669356L146.204998 19.6669356zM146.753243 22.223434C147.302972 24.2264942 149.204396 25.5507396 151.636259 24.8830528 153.353698 24.4119627 154.290685 23.2316409 154.406417 21.969713L157.123902 22.4548987C156.528919 24.7717717 154.91831 26.7525757 152.200083 27.4981592 148.623508 28.4796587 144.834015 26.4424723 143.69598 22.293912 142.557203 18.1446098 144.633709 14.4975565 148.353466 13.4767376 151.785376 12.5352993 155.393852 14.4686234 156.531887 18.6171837L156.482181 19.5541707 146.753243 22.223434zM165.118412 12.4542866C162.343803 12.9528261 161.222089 15.2652478 161.668698 17.7468169 162.114564 20.2291278 163.970733 22.0059164 166.745342 21.507377 169.227653 21.0615106 170.611991 18.7016089 170.166124 16.2200399 169.720258 13.7377289 167.600723 12.0076784 165.118412 12.4542866L165.118412 12.4542866zM174.027579 22.6105439L171.399861 23.0831177 170.897612 21.9665971 170.725497 21.8471554 170.605314 22.0192702C169.887179 23.0527009 168.532517 23.8999212 167.071767 24.1618028 163.275597 24.844327 159.538777 22.5014884 158.776872 18.2668707 158.016451 14.0329949 160.703519 10.5350582 164.499689 9.85253396 165.930765 9.59510363 167.525052 9.91262577 168.558483 10.63076L168.730598 10.7502017 168.850781 10.5780869 167.118505.941141559 170.038522.416636528 174.027579 22.6105439zM189.367756 21.1064682L186.707396 21.3394167 186.308267 20.1828349 186.148022 20.0478138 186.013001 20.2088005C185.499624 21.1472713 184.073742 21.868373 182.891937 21.9714935 179.344295 22.2823388 177.068225 20.0982612 176.784087 16.8466268L176.034052 8.27427088 178.990421 8.01609867 179.739713 16.5877127C179.964501 18.4735568 180.97345 19.4587657 182.953512 19.285909 184.667983 19.1360504 185.995196 17.6196597 185.933621 15.8977697L185.19694 7.47304678 188.152566 7.2141327 189.367756 21.1064682zM199.283795 18.5432188C201.064293 18.5350582 202.423406 17.3428664 202.893754 16.1536421L205.213595 17.6270042C204.065916 19.7087031 201.96567 21.2020958 199.14729 21.2139658 195.408244 21.230287 192.013428 18.2776279 191.994881 13.9754996 191.976334 9.67337135 195.345927 6.69103723 199.084231 6.674716 201.903352 6.66284601 203.986535 8.13769184 205.152761 10.2097464L202.844791 11.7031391C202.364798 10.518366 201.024973 9.33730236 199.244475 9.34546298 196.425354 9.35659109 194.8919 11.4405156 194.902286 13.9621459 194.913414 16.484518 196.465415 18.5550888 199.283795 18.5432188M210.354263 12.3818055L217.453257 12.9307924C217.425066 11.3810173 216.037761 10.0834794 214.262457 9.94623267 212.191886 9.78598785 210.916604 10.8772847 210.354263 12.3818055L210.354263 12.3818055zM210.004841 14.973172C209.844596 17.0444846 211.186646 18.9332962 213.700858 19.1284091 215.476163 19.264914 216.757379 18.4718505 217.292271 17.3226874L219.685557 18.698864C218.342023 20.6774424 216.157203 21.9964946 213.346984 21.7791255 209.648741 21.4927621 206.771753 18.2945426 207.104113 14.0050262 207.435731 9.71550981 210.622822 6.98615477 214.468698 7.28364631 218.018565 7.55813975 220.759049 10.5983401 220.427431 14.8871146L220.062429 15.751398 210.004841 14.973172zM230.572931 11.9855705C227.793128 11.5181898 225.95699 13.3157509 225.538573 15.803255 225.120156 18.2900172 226.268577 20.5890852 229.048379 21.0564659 231.5344 21.474141 233.634646 19.7210924 234.053063 17.2343302 234.470738 14.7468262 233.059693 12.4032457 230.572931 11.9855705L230.572931 11.9855705zM235.530134 24.5529188L232.897223 24.1100199 232.801521 22.8911207 232.679112 22.7204896 232.508481 22.842157C231.48321 23.5714193 229.922307 23.9111977 228.45859 23.6648954 224.655001 23.0261418 221.928613 19.558622 222.641554 15.3158437 223.355237 11.0738072 227.06535 8.68868178 230.868939 9.32743543 232.302981 9.56854454 233.696221 10.4053786 234.426967 11.4306487L234.548634 11.6012797 234.720007 11.4796124 236.343228 1.82486206 239.268438 2.31598275 235.530134 24.5529188zM253.27977 26.8400427C255.970548 27.6791023 258.005508 26.1374878 258.755543 23.7301062 259.50632 21.3219827 258.708063 18.8975379 256.016544 18.0584782 253.609162 17.3077016 251.291547 18.7610331 250.540771 21.1691566 249.790736 23.5772801 250.871646 26.089266 253.27977 26.8400427L253.27977 26.8400427zM252.626921 5.5044837L255.431205 6.37841146 252.517865 15.7260259 252.643242 15.919655 252.829452 15.8224695C253.943747 15.2371308 255.564742 15.1206566 256.953531 15.5531692 260.635452 16.7008485 262.867752 20.5059211 261.588019 24.6129364 260.308286 28.7199518 256.308842 30.581314 252.626921 29.4336347 251.210683 28.9922196 249.971011 27.9840126 249.385673 26.8697176L249.288487 26.6835072 249.074827 26.7725321 248.46649 27.8259934 245.916669 27.0321881 252.626921 5.5044837z"></path>
                <polygon points="274.408 22.188 277.158 23.305 262.803 38.931 260.055 37.813 265.674 31.706 265.887 18.727 268.663 19.854 268.373 28.767"></polygon>
                <path d="M287.006779 38.5759726C288.696768 39.504799 290.581129 38.8467566 291.509955 37.1575092 292.438781 35.4667779 291.983271 33.5230676 290.293281 32.5942412 288.603292 31.6661566 286.71819 32.3234571 285.789363 34.0134465 284.860537 35.7041777 285.31679 37.6471461 287.006779 38.5759726M282.962823 45.9338805C284.653554 46.8627069 286.366541 46.5177354 287.152186 45.087402 287.937831 43.6578105 287.33988 41.9744981 285.649149 41.0456716 283.95916 40.1168452 282.217239 40.5144897 281.430853 41.9448231 280.645208 43.3751565 281.272833 45.005054 282.962823 45.9338805M283.373821 38.101915C282.426448 36.4987249 282.290685 34.5283071 283.318922 32.6565586 284.962916 29.665322 288.589196 28.6111188 291.579691 30.2543701 292.749627 30.897575 293.763027 32.1320536 293.855019 33.1981268L293.913627 33.3991747 294.114675 33.3405666 294.946316 32.4436407 296.766875 33.4436871 293.980396 38.514397C292.951417 40.3861455 291.215431 41.3283257 289.354069 41.3884175 290.358566 42.8877452 290.565549 44.7290768 289.60779 46.4717392 288.008309 49.3828534 284.464376 49.6707006 281.734279 48.1706311 279.004182 46.6698196 277.346835 43.5250151 278.947058 40.613159 279.904076 38.8704966 281.595549 38.0729819 283.373821 38.101915M299.326638 48.8622803C301.67096 50.4268929 304.057569 49.5232902 305.458228 47.4252701 306.857403 45.3279918 306.776538 42.7766866 304.432216 41.2113321 302.087894 39.6467195 299.701284 40.551806 298.301368 42.6490842 296.901451 44.7463625 296.982316 47.2976677 299.326638 48.8622803M305.915222 38.9901609C309.123086 41.1319516 310.313794 45.4941717 307.925701 49.0722307 305.537608 52.6502898 301.052237 53.2252423 297.843631 51.0834516 294.635768 48.9416609 293.44506 44.5801827 295.833894 41.0013817 298.221245 37.4233227 302.706617 36.8491121 305.915222 38.9901609M312.632596 58.6478973C314.824834 60.4194927 317.284147 59.7369685 318.869532 57.7747114 320.454175 55.813938 320.60626 53.2656002 318.414021 51.4932629 316.221783 49.7224092 313.76247 50.4056753 312.177085 52.3664487 310.592442 54.327964 310.440358 56.8763018 312.632596 58.6478973M320.092883 49.417499C323.093022 51.8412018 323.880892 56.2939305 321.176761 59.639783 318.472629 62.9856355 313.953874 63.1488478 310.953735 60.7251449 307.953596 58.3007001 307.164984 53.8479714 309.869115 50.502119 312.573246 47.1562665 317.092744 46.9923123 320.092883 49.417499M331.404386 63.0245097C329.385005 61.0578013 326.852246 61.4903139 325.092521 63.2960356 323.332795 65.1032411 322.967052 67.6463857 324.986433 69.613836 326.792897 71.3728196 329.5178 71.1280011 331.277526 69.3207957 333.037251 67.5143321 333.21085 64.7842352 331.404386 63.0245097L331.404386 63.0245097zM328.324867 76.1786804L326.412315 74.3158344 327.027329 73.2579218 327.024361 73.0487133 326.814411 73.0509389C325.556934 73.068002 324.079121 72.4581815 323.016757 71.4225252 320.253276 68.7310057 319.986201 64.3279826 322.987824 61.2469792 325.990189 58.1652339 330.398405 58.3165763 333.161886 61.0080957 334.202736 62.0222377 334.871906 63.5037604 334.888969 64.7627208L334.891937 64.9726712 335.101887 64.9697037 341.933064 57.9560254 344.058534 60.0258543 328.324867 76.1786804z"></path>
                <polygon points="339.445 84.665 337.582 86.6 335.685 84.318 337.549 82.384 352.836 69.676 354.732 71.958"></polygon>
                <path d="M345.252951 92.9360597C346.912524 95.2136134 349.465313 95.1898734 351.503241 93.7038995 353.541169 92.2186674 354.346103 89.7971902 352.68653 87.5188946 351.026216 85.2405991 348.473427 85.2650809 346.435499 86.750313 344.39757 88.2362869 343.592637 90.6585061 345.252951 92.9360597M354.844642 85.9461214C357.116261 89.0627347 356.727519 93.5688784 353.250355 96.1023786 349.773932 98.6366208 345.366458 97.6261882 343.094839 94.5095748 340.822479 91.3914777 341.211221 86.8868178 344.688385 84.3525757 348.164807 81.8198173 352.572282 82.8287662 354.844642 85.9461214M354.361905 106.716892C355.807076 109.136885 358.350962 109.345352 360.516493 108.052265 362.681282 106.759178 363.703584 104.420049 362.258413 102.000798 360.813242 99.580804 358.269356 99.3723374 356.103825 100.665424 353.939036 101.958511 352.915992 104.296898 354.361905 106.716892M364.550804 100.631298C366.528641 103.942282 365.731126 108.392785 362.038077 110.598377 358.345027 112.805453 354.04735 111.398117 352.069514 108.086391 350.091677 104.775407 350.889192 100.324162 354.582241 98.1178282 358.275291 95.9122363 362.572968 97.3188297 364.550804 100.631298"></path>
                <polygon points="373.585 118.175 375.272 121.644 366.309 118.546 362.86 128.009 361.174 124.54 363.916 116.609 358.579 119.204 357.281 116.534 377.56 106.674 378.858 109.343 366.05 115.571"></polygon>
                <path d="M366.53146 126.858998L368.482589 128.956276C367.159828 129.642509 366.577456 131.15074 367.126443 132.529884 367.674688 133.907544 368.69254 134.300737 369.519729 133.972087 370.318728 133.653823 370.514582 132.937914 370.267538 131.758334 370.164418 131.257569 370.088005 130.744934 370.02272 130.259749 369.697037 127.834562 370.417397 125.792183 372.485 124.969444 374.966569 123.982751 377.277507 125.777345 378.154403 127.982937 379.086938 130.326517 378.391802 132.996522 376.158761 134.205035L375.062271 131.448231C375.889461 131.118839 376.166922 130.051282 375.727732 128.947373 375.290026 127.844948 374.354523 127.25961 373.527333 127.58826 372.699402 127.917652 372.493903 128.765614 372.696434 129.834655L372.968702 131.323596C373.35596 133.659758 372.766912 135.714008 370.562062 136.590903 368.355729 137.46854 365.742106 136.113878 364.699773 133.49432 363.658181 130.875504 364.406733 128.342004 366.53146 126.858998M382.702388 150.600825C381.987221 147.874438 379.593935 146.938193 377.154653 147.57843 374.715371 148.218667 373.089924 150.209116 373.805833 152.934761 374.44607 155.374786 376.906867 156.569203 379.346149 155.929707 381.785431 155.28947 383.342625 153.040108 382.702388 150.600825L382.702388 150.600825zM373.279102 160.281541L372.601771 157.699077 373.674521 157.110771 373.780609 156.929754 373.59885 156.823666C372.512746 156.188622 371.561664 154.904437 371.185533 153.469653 370.20626 149.738768 372.248639 145.828349 376.409069 144.737052 380.570242 143.645013 384.269226 146.048685 385.2485 149.780313 385.62463 151.215097 385.42655 152.800482 384.791506 153.887328L384.685418 154.068345 384.867177 154.173691 386.089785 154.159596 386.767858 156.742802 373.279102 160.281541zM387.781407 161.47032L388.221338 164.104716 387.099624 164.592869 386.977957 164.7635 387.147846 164.885167C388.123411 165.323615 388.95431 166.689405 389.149423 167.860083 389.736245 171.372115 387.736152 173.811397 384.51716 174.348514L376.03012 175.766977 375.541225 172.839542 384.028265 171.422562C385.885918 171.02195 386.788779 169.938814 386.466806 168.007715 386.178217 166.280632 384.534224 165.081022 382.827171 165.306552L374.515213 166.694598 374.026318 163.767905 387.781407 161.47032zM388.424018 184.489043C388.212584 181.678082 386.028507 180.324904 383.513553 180.514082 380.997858 180.702518 379.040794 182.367283 379.252228 185.177503 379.440664 187.692456 381.64403 189.312709 384.159726 189.124273 386.674679 188.935095 388.612454 187.003997 388.424018 184.489043L388.424018 184.489043zM377.406445 192.308397L377.206881 189.645811 378.367914 189.26152 378.505161 189.102017 378.345658 188.96477C377.392349 188.144257 376.689053 186.709473 376.57703 185.230176 376.289183 181.383558 379.002958 177.906394 383.293216 177.584421 387.582733 177.262447 390.787629 180.295229 391.075476 184.141104 391.185274 185.590727 390.705281 187.144211 389.884768 188.098261L389.747522 188.257764 389.907025 188.395011 399.670089 187.661297 399.891909 190.619892 377.406445 192.308397zM381.429851 201.974498L382.348291 204.688274C380.860092 204.771364 379.711671 205.907915 379.645644 207.390179 379.580359 208.872444 380.348199 209.648444 381.236964 209.687764 382.096054 209.725599 382.567886 209.152872 382.8268 207.97626 382.938081 207.476237 383.079779 206.977697 383.219252 206.508091 383.917355 204.163769 385.41149 202.59693 387.634145 202.694858 390.302666 202.812816 391.67365 205.397505 391.568303 207.769277 391.457764 210.288682 389.728456 212.439375 387.194955 212.624102L387.326267 209.660314C388.215774 209.699634 388.907201 208.839802 388.959132 207.653545 389.012547 206.468772 388.399759 205.54959 387.50951 205.511012 386.620003 205.471693 386.085112 206.160894 385.831391 207.218065L385.468614 208.687717C384.862503 210.977141 383.484101 212.609264 381.112329 212.503918 378.741299 212.399314 376.911838 210.090601 377.036472 207.275189 377.161107 204.459035 378.883739 202.455974 381.429851 201.974498M387.774878 228.384921C388.550137 229.246237 388.926267 230.79898 388.756378 231.974109 388.291223 235.204229 385.98251 236.670172 383.044689 236.247304L373.941893 234.93567 374.364761 231.99859 383.175258 233.267937C384.936468 233.521658 385.944675 232.767172 386.156109 231.299745 386.40612 229.566727 385.203542 227.924959 383.50836 227.620791L375.168211 226.419697 375.591079 223.482617 384.401576 224.751964C386.162786 225.004943 387.171735 224.251199 387.383169 222.78303 387.63318 221.050012 386.430602 219.408244 384.73542 219.104076L376.395271 217.902981 376.818139 214.965902 390.620708 216.954866 390.239384 219.597422 389.023452 219.722057 388.854305 219.847434 388.980424 220.015839C389.776455 220.730264 390.153327 222.283006 389.98418 223.457393 389.679269 225.571735 388.548653 226.967942 386.99962 227.524347L387.774878 228.384921zM373.969045 244.885835C373.257588 247.612964 374.893421 249.572254 377.333445 250.209524 379.774211 250.84531 382.157852 249.933547 382.86931 247.206417 383.580025 244.478546 381.944934 242.519256 379.504168 241.882728 377.064144 241.246942 374.679761 242.157964 373.969045 244.885835M385.453257 247.880039C384.48066 251.612408 380.748291 254.165197 376.584894 253.079835 372.422238 251.994473 370.411759 247.944582 371.385098 244.212213 372.357695 240.479844 376.089322 237.926313 380.252719 239.011675 384.415375 240.097037 386.426596 244.14767 385.453257 247.880039M369.067928 260.66446C368.108685 263.315176 369.556081 265.416905 371.927853 266.274512 374.299624 267.133602 376.757454 266.445143 377.716697 263.795169 378.67594 261.144452 377.22706 259.042723 374.856772 258.184374 372.484258 257.326026 370.027171 258.014485 369.067928 260.66446M380.227941 264.703223C378.914824 268.330987 374.963602 270.52916 370.918162 269.065443 366.872722 267.601725 365.244308 263.382687 366.556684 259.755664 367.869801 256.129383 371.820281 253.930468 375.865721 255.394186 379.910419 256.857903 381.540316 261.076942 380.227941 264.703223M376.659823 273.510307L375.55443 275.97333 378.260787 277.187778 380.009385 280.541049 379.77792 281.055168 374.363722 278.626272 373.137404 281.360078 370.70109 280.266555 371.927408 277.532749 365.430074 274.617926C364.619205 274.253665 363.821691 274.578606 363.45743 275.3917L362.999694 277.13733 360.564121 276.043808 360.961024 274.433199C362.175472 271.726842 364.185209 270.872203 366.620782 271.964984L373.118116 274.880549 374.223508 272.416785 376.659823 273.510307zM378.944795 288.978829L377.538944 291.59171 368.916882 286.953512 368.716576 287.014346 368.776668 287.214652C369.279659 288.159058 369.099383 289.746669 368.537785 290.791969 366.850763 293.927129 363.775694 294.63191 360.900932 293.085102L353.324171 289.009246 354.730023 286.397107 362.306784 290.472963C364.021255 291.294218 365.398173 290.99005 366.326258 289.265934 367.154931 287.72432 366.589623 285.769481 365.102907 284.901488L357.68194 280.909464 359.08705 278.297325 378.944795 288.978829zM360.011796 304.753818L358.666778 306.709399 362.088302 309.063365C364.289442 310.576047 364.914842 312.806862 363.233755 315.251338L362.149135 316.306283 359.947995 314.792859 361.11793 313.616247C361.622405 312.883275 361.385747 312.179979 360.652033 311.675504L356.984949 309.153874 355.303862 311.599091 353.102722 310.084926 354.785292 307.640451 345.496286 301.250689 347.176631 298.806213 356.466379 305.195975 357.811397 303.239653 360.011796 304.753818zM335.160495 314.622748L336.82081 312.531404 337.935105 313.036621 338.143571 313.012881 338.119089 312.804414C337.791923 311.787305 338.249659 310.255335 338.987082 309.326508 341.20306 306.539287 344.353058 306.387945 346.908814 308.418454L353.645774 313.771076 351.800733 316.093142 345.063031 310.742746C343.539222 309.607678 342.130403 309.662577 340.894441 311.219771 339.823174 312.567014 340.01161 314.573784 341.303213 315.712561L347.92444 320.972449 346.079399 323.295999 335.160495 314.622748zM342.961747 326.892679L341.127092 328.83268 340.061019 328.233987 339.851811 328.239922 339.857004 328.449131C340.096629 329.492206 339.509065 330.97818 338.693745 331.840979 336.248528 334.427153 333.095563 334.306227 330.724533 332.064283L324.471276 326.153772 326.509946 323.997886 332.762461 329.907655C334.203181 331.148069 335.612742 331.213354 336.957018 329.790439 338.159596 328.518125 338.123244 326.483164 336.913989 325.25833L330.79056 319.469486 332.828488 317.313599 342.961747 326.892679zM318.953735 334.443251C317.627264 335.630992 317.401734 337.425585 317.83944 338.625938L315.125664 339.064385C314.602643 336.745287 315.18353 334.234785 317.283034 332.354876 320.069514 329.861436 324.568239 329.816924 327.437808 333.02182 330.306635 336.227459 329.765067 340.695025 326.97933 343.187722 324.879084 345.067631 322.341874 345.346576 320.093995 344.571317L320.829193 341.922827C321.975388 342.49036 323.761079 342.484425 325.088292 341.296685 327.188538 339.417518 326.95188 336.840247 325.270793 334.961079 323.588965 333.082654 321.053981 332.564084 318.953735 334.443251M320.950415 348.111392L318.820494 349.770223 320.642537 352.111578 320.61583 355.892169 320.170705 356.238624 316.525136 351.555914 314.160783 353.396504 312.520499 351.288839 314.884852 349.44825 310.512246 343.828553C309.965484 343.12674 309.109362 343.041424 308.406807 343.588186L307.183456 344.914657 305.543914 342.808476 306.650049 341.572514C308.990662 339.749729 311.166579 339.935939 312.805379 342.042862L317.180211 347.662559 319.310131 346.003728 320.950415 348.111392zM314.680688 360.37984L312.256985 362.092827 310.374109 359.426531 312.797811 357.713544 314.680688 360.37984zM311.233199 355.550239L308.857718 357.228358 300.812834 345.837622 303.187574 344.160245 311.233199 355.550239zM293.616284 353.182102C291.214837 354.65769 291.03753 357.203802 292.358807 359.35227 293.678602 361.501479 296.029601 362.494849 298.431789 361.018519 300.833236 359.542931 301.009802 356.996819 299.690008 354.848352 298.36873 352.699884 296.017731 351.706515 293.616284 353.182102M299.830222 363.293847C296.54372 365.31397 292.08283 364.572096 289.8305 360.905754 287.57817 357.240896 288.932091 352.926156 292.217851 350.906774 295.504354 348.887393 299.965243 349.629267 302.217573 353.294867 304.469903 356.960467 303.116725 361.274466 299.830222 363.293847M290.04965 368.704187L287.65859 369.894153 286.864784 368.964585 286.665962 368.897074 286.599935 369.095897C286.464914 370.156777 285.401066 371.34971 284.339445 371.878666 281.151611 373.465535 278.23382 372.265925 276.779747 369.343682L272.945741 361.640803 275.601651 360.318783 279.435656 368.021663C280.361515 369.681977 281.661279 370.228738 283.414327 369.356294 284.981166 368.576585 285.647369 366.652905 284.934428 365.086067L281.179802 357.54269 283.835712 356.22067 290.04965 368.704187zM272.512709 366.101099L270.425817 368.065582C269.732165 366.746529 268.220967 366.173803 266.845533 366.730208 265.47084 367.286614 265.08284 368.307433 265.417425 369.133139 265.739398 369.929911 266.45679 370.120573 267.634887 369.867594 268.136394 369.760764 268.647545 369.682125 269.131989 369.613873 271.55495 369.273353 273.602522 369.981843 274.437131 372.044253 275.437919 374.519887 273.657421 376.841953 271.457022 377.73146 269.119377 378.67735 266.444179 377.998535 265.223054 375.77217L267.973181 374.659359C268.307766 375.485065 269.376807 375.756591 270.47849 375.310725 271.577948 374.8656 272.157352 373.927129 271.82425 373.101423 271.489665 372.275718 270.640961 372.076153 269.572662 372.28462L268.085946 372.56579C265.75201 372.966402 263.694051 372.390708 262.803802 370.190309 261.913553 367.989911 263.253378 365.367385 265.866259 364.309473 268.479139 363.252302 271.015607 363.986016 272.512709 366.101099"></path>
                <polygon points="260.906 370.746 257.545 371.919 256.274 368.277 259.636 367.104"></polygon>
            </g>
        </g>
    </svg>
